HIERARCHY
ROOT Hips
{
	OFFSET 0.00000 0.00000 0.00000
	CHANNELS 6 Xposition Yposition Zposition Zrotation Yrotation Xrotation 
	JOINT LHipJoint
	{
		OFFSET 0 0 0
		CHANNELS 3 Zrotation Yrotation Xrotation
		JOINT LeftUpLeg
		{
			OFFSET 1.75344 -1.53157 0.77399
			CHANNELS 3 Zrotation Yrotation Xrotation
			JOINT LeftLeg
			{
				OFFSET 2.25415 -6.19323 0.00000
				CHANNELS 3 Zrotation Yrotation Xrotation
				JOINT LeftFoot
				{
					OFFSET 2.30342 -6.32861 0.00000
					CHANNELS 3 Zrotation Yrotation Xrotation
					JOINT LeftToeBase
					{
						OFFSET 0.10958 -0.30108 1.49206
						CHANNELS 3 Zrotation Yrotation Xrotation
						End Site
						{
							OFFSET 0.00000 -0.00000 0.77783
						}
					}
				}
			}
		}
	}
	JOINT RHipJoint
	{
		OFFSET 0 0 0
		CHANNELS 3 Zrotation Yrotation Xrotation
		JOINT RightUpLeg
		{
			OFFSET -1.81912 -1.53156 0.77399
			CHANNELS 3 Zrotation Yrotation Xrotation
			JOINT RightLeg
			{
				OFFSET -2.22882 -6.12365 0.00000
				CHANNELS 3 Zrotation Yrotation Xrotation
				JOINT RightFoot
				{
					OFFSET -2.21943 -6.09785 0.00000
					CHANNELS 3 Zrotation Yrotation Xrotation
					JOINT RightToeBase
					{
						OFFSET -0.18931 -0.52012 1.59379
						CHANNELS 3 Zrotation Yrotation Xrotation
						End Site
						{
							OFFSET -0.00000 -0.00000 0.84686
						}
					}
				}
			}
		}
	}
	JOINT LowerBack
	{
		OFFSET 0 0 0
		CHANNELS 3 Zrotation Yrotation Xrotation
		JOINT Spine
		{
			OFFSET -0.00200 1.66634 -0.14248
			CHANNELS 3 Zrotation Yrotation Xrotation
			JOINT Spine1
			{
				OFFSET -0.00875 1.64542 0.09514
				CHANNELS 3 Zrotation Yrotation Xrotation
				JOINT Neck
				{
					OFFSET 0 0 0
					CHANNELS 3 Zrotation Yrotation Xrotation
					JOINT Neck1
					{
						OFFSET 0.02257 1.59605 0.00839
						CHANNELS 3 Zrotation Yrotation Xrotation
						JOINT Head
						{
							OFFSET -0.10214 1.57530 -0.23335
							CHANNELS 3 Zrotation Yrotation Xrotation
							End Site
							{
								OFFSET -0.03588 1.60717 -0.08062
							}
						}
					}
				}
				JOINT LeftShoulder
				{
					OFFSET 0 0 0
					CHANNELS 3 Zrotation Yrotation Xrotation
					JOINT LeftArm
					{
						OFFSET 2.54983 1.10186 0.40078
						CHANNELS 3 Zrotation Yrotation Xrotation
						JOINT LeftForeArm
						{
							OFFSET 4.28840 -0.00000 0.00000
							CHANNELS 3 Zrotation Yrotation Xrotation
							JOINT LeftHand
							{
								OFFSET 3.06552 -0.00000 -0.00000
								CHANNELS 3 Zrotation Yrotation Xrotation
								JOINT LeftFingerBase
								{
									OFFSET 0 0 0
									CHANNELS 3 Zrotation Yrotation Xrotation
									JOINT LeftHandIndex1
									{
										OFFSET 0.75304 -0.00000 0.00000
										CHANNELS 3 Zrotation Yrotation Xrotation
										End Site
										{
											OFFSET 0.60712 -0.00000 0.00000
										}
									}
								}
								JOINT LThumb
								{
									OFFSET 0 0 0
									CHANNELS 3 Zrotation Yrotation Xrotation
									End Site
									{
										OFFSET 0.61639 -0.00000 0.61639
									}
								}
							}
						}
					}
				}
				JOINT RightShoulder
				{
					OFFSET 0 0 0
					CHANNELS 3 Zrotation Yrotation Xrotation
					JOINT RightArm
					{
						OFFSET -2.60909 1.35448 0.21802
						CHANNELS 3 Zrotation Yrotation Xrotation
						JOINT RightForeArm
						{
							OFFSET -4.52172 -0.00000 -0.00000
							CHANNELS 3 Zrotation Yrotation Xrotation
							JOINT RightHand
							{
								OFFSET -2.89140 -0.00000 0.00000
								CHANNELS 3 Zrotation Yrotation Xrotation
								JOINT RightFingerBase
								{
									OFFSET 0 0 0
									CHANNELS 3 Zrotation Yrotation Xrotation
									JOINT RightHandIndex1
									{
										OFFSET -0.68054 -0.00000 0.00000
										CHANNELS 3 Zrotation Yrotation Xrotation
										End Site
										{
											OFFSET -0.54867 -0.00000 0.00000
										}
									}
								}
								JOINT RThumb
								{
									OFFSET 0 0 0
									CHANNELS 3 Zrotation Yrotation Xrotation
									End Site
									{
										OFFSET -0.55705 -0.00000 0.55705
									}
								}
							}
						}
					}
				}
			}
		}
	}
}
MOTION
Frames: 6
Frame Time: .0083333
8.8615 15.4965 22.8031 0 0 0 0 0 0 -21 0 0 0 0 0 0 0 0 0 0 0 0 0 0 21 0 0 0 0 0 0 0 0 0 0 0 0 0 0 0 0 0 0 0 0 0 0 -16 0 0 21 0 0 11 0 0 0 -8 0 0 0 0 0 0 0 0 0 0 0 0 0 0 0 0 0 0 0 0 8 0 0 0 0 0 0 0 0 0 0 0 0 0 0 0 0 0
8.8615 15.4965 22.8031 -179.3020 7.1158 177.5590 0.0000 0.0000 0.0000 -26.0177 -18.4889 4.7333 1.3279 7.2975 20.5998 0.6453 14.4959 -26.4673 3.0187 -10.7252 -31.3586 0.0000 0.0000 0.0000 27.2452 15.6506 7.1965 -0.7415 -5.5007 15.3424 0.9928 -21.1352 -20.9554 -0.2147 2.9829 -8.2312 1.5978 1.0189 7.3856 0.3020 1.5986 -3.5289 -0.8060 0.7250 -7.8286 -5.3731 -1.1303 -6.9301 4.6592 -1.2771 11.2569 2.2475 -0.5028 4.5709 0.0000 -0.0000 0.0000 -86.5576 12.3621 37.8740 18.9541 -29.3616 -5.0083 -0.0000 -0.0000 11.2290 4.8159 -18.5824 -1.5379 -7.1250 0.0000 -0.0000 -15.1519 11.8111 12.1739 0.0000 -0.0000 0.0000 85.9447 -10.6098 46.2192 -19.1770 29.6381 -5.1181 0.0000 0.0000 17.6125 0.2123 -54.6886 -0.1733 7.1250 -0.0000 -0.0000 77.6481 -71.6996 -58.2119
8.8600 15.5138 22.8141 -179.3180 6.6073 178.2790 0.0000 0.0000 0.0000 -25.8396 -19.1569 4.0615 1.3118 7.2549 20.4728 0.7154 13.9392 -26.4269 2.6532 -10.1113 -29.3379 0.0000 0.0000 0.0000 26.9982 15.8773 6.4727 -0.7355 -5.4789 15.2796 0.9815 -21.1696 -21.1683 -0.1255 2.2832 -6.2890 1.5828 0.8565 6.9628 0.2931 1.3893 -3.8102 -0.7734 0.6278 -7.8901 -5.4477 -1.1552 -6.8187 4.6952 -1.3146 11.0094 2.2672 -0.5270 4.4791 -0.0000 0.0000 0.0000 -86.6006 12.4547 38.0937 18.9801 -29.3939 -5.0211 -0.0000 -0.0000 10.9906 4.8253 -23.4178 -1.9216 -7.1250 0.0000 -0.0000 -15.0327 7.1361 13.5353 -0.0000 0.0000 0.0000 85.7653 -10.8452 46.5651 -19.3152 29.8084 -5.1866 0.0000 0.0000 17.4552 0.5130 -54.4872 -0.4176 7.1250 -0.0000 -0.0000 77.1874 -71.5500 -57.5868
8.8575 15.5105 22.8089 -179.3030 6.7315 178.1310 0.0000 0.0000 0.0000 -25.9310 -19.1370 4.2789 1.3140 7.2606 20.4897 0.7292 14.0148 -26.6117 2.6238 -10.0597 -29.1701 0.0000 0.0000 0.0000 27.0445 15.8388 6.6881 -0.7283 -5.4529 15.2048 0.9746 -21.1201 -21.1419 -0.1275 2.3020 -6.3410 1.6179 0.8852 7.0556 0.3011 1.4317 -3.7839 -0.7920 0.6460 -7.9144 -5.4854 -1.1393 -6.6819 4.7598 -1.3021 10.8617 2.2935 -0.5211 4.4108 -0.0000 0.0000 0.0000 -86.6462 12.5659 38.1001 18.9731 -29.3852 -5.0176 -0.0000 -0.0000 10.9689 4.6478 -30.7773 -2.3822 -7.1250 0.0000 -0.0000 -15.1981 0.0506 15.7492 -0.0000 0.0000 0.0000 85.6462 -11.0454 46.8659 -19.4530 29.9776 -5.2553 0.0000 0.0000 17.2866 0.7778 -54.4650 -0.6329 7.1250 -0.0000 -0.0000 77.2402 -71.4526 -57.5194
8.8618 15.5144 22.8260 -179.2640 6.4435 178.1970 0.0000 0.0000 0.0000 -25.7462 -19.0983 4.0792 1.3073 7.2429 20.4370 0.7206 13.7705 -26.2934 2.7302 -10.2450 -29.7738 0.0000 0.0000 0.0000 27.1037 15.8076 6.5794 -0.7292 -5.4558 15.2134 0.9922 -21.2786 -21.2787 -0.1320 2.3421 -6.4521 1.5398 0.7722 7.2946 0.3336 1.2830 -3.8765 -0.6989 0.5763 -8.1595 -5.5165 -1.0950 -6.6082 4.8266 -1.2497 10.7591 2.3218 -0.4945 4.3648 -0.0000 -0.0000 0.0000 -86.7041 12.6609 38.0760 18.9680 -29.3789 -5.0152 -0.0000 -0.0000 11.0858 4.5941 -37.8920 -2.8254 -7.1250 0.0000 -0.0000 -15.5499 -6.7839 17.9141 -0.0000 -0.0000 0.0000 85.6931 -10.9789 47.0133 -19.4163 29.9326 -5.2369 0.0000 0.0000 17.2189 0.6499 -54.5677 -0.5295 7.1250 -0.0000 -0.0000 77.4822 -71.5203 -57.8347
8.8591 15.5164 22.8209 -179.2700 6.5453 178.2230 0.0000 0.0000 0.0000 -25.7960 -19.1832 4.1328 1.3049 7.2365 20.4181 0.7182 13.9155 -26.4240 2.7173 -10.2228 -29.7012 0.0000 0.0000 0.0000 27.0761 15.8347 6.5351 -0.7319 -5.4659 15.2424 0.9815 -21.2110 -21.2589 -0.1425 2.4331 -6.7041 1.5624 0.7890 7.1226 0.3404 1.3036 -3.8259 -0.7036 0.5870 -8.0038 -5.4845 -1.0702 -6.6492 4.7627 -1.2129 10.7279 2.2985 -0.4796 4.3597 0.0000 -0.0000 0.0000 -86.7936 12.6549 38.0252 18.9427 -29.3475 -5.0028 -0.0000 -0.0000 11.1836 3.4898 -37.8261 -2.1418 -7.1250 0.0000 -0.0000 -16.1133 -6.5969 18.5683 0.0000 -0.0000 0.0000 85.6956 -10.8268 47.1859 -19.3351 29.8330 -5.1965 0.0000 0.0000 17.1570 0.1648 -54.4782 -0.1341 7.1250 -0.0000 -0.0000 77.0080 -71.6697 -57.5591
